<svg width="32" height="25" viewBox="0 0 32 25" fill="none" xmlns="http://www.w3.org/2000/svg">
<path d="M18.2291 4.16671C18.2291 4.71924 17.9547 5.24915 17.4663 5.63985C16.978 6.03055 16.3156 6.25004 15.6249 6.25004C14.9343 6.25004 14.2719 6.03055 13.7835 5.63985C13.2951 5.24915 13.0208 4.71924 13.0208 4.16671C13.0208 3.61417 13.2951 3.08427 13.7835 2.69357C14.2719 2.30287 14.9343 2.08337 15.6249 2.08337C16.3156 2.08337 16.978 2.30287 17.4663 2.69357C17.9547 3.08427 18.2291 3.61417 18.2291 4.16671Z" stroke="#AEAEAE" stroke-width="0.75"/>
<path d="M15.625 15.625L16.4726 15.2375C16.3872 15.118 16.2638 15.0187 16.1149 14.9496C15.9661 14.8806 15.797 14.8442 15.625 14.8442C15.4529 14.8442 15.2839 14.8806 15.135 14.9496C14.9862 15.0187 14.8628 15.118 14.7773 15.2375L15.625 15.625ZM7.56506 12.0417L10.3984 12.7979L11.0143 11.3156L8.18355 10.5594L7.56506 12.0417ZM10.8281 13.5281L9.20569 16.9042L11.0286 17.4656L12.6523 14.0885L10.8281 13.5281ZM23.0664 10.5594L20.233 11.3156L20.8515 12.7979L23.6823 12.0417L23.0664 10.5594ZM18.5963 14.0885L20.2213 17.4656L22.0429 16.9042L20.4192 13.5281L18.5963 14.0885ZM14.4205 18.8854L16.4713 16.0125L14.776 15.2375L12.7239 18.1094L14.4205 18.8854ZM22.1211 7.4625L19.6523 7.88542L20.0599 9.41354L22.5325 8.98959L22.1211 7.4625ZM11.6015 7.88542L9.12757 7.4625L8.71871 8.98959L11.1901 9.41354L11.6015 7.88542ZM14.7786 16.0125L16.8307 18.8854L18.526 18.1094L16.4739 15.2375L14.7786 16.0125ZM19.6523 7.88542L19.3841 7.93125L19.7799 9.46146L20.0599 9.41354L19.6523 7.88542ZM11.1901 9.41354L11.4713 9.46146L11.8671 7.93021L11.5989 7.88542L11.1901 9.41354ZM19.3841 7.93125C16.9047 8.34154 14.3465 8.3405 11.8671 7.93021L11.4713 9.46146C14.2114 9.91484 17.0385 9.91484 19.7786 9.46146L19.3841 7.93125ZM11.9075 20.0521C12.9466 20.0521 13.9062 19.6063 14.4205 18.8854L12.7239 18.1094C12.642 18.225 12.5244 18.3212 12.3807 18.388C12.237 18.4548 12.0737 18.4899 11.9075 18.4896V20.0521ZM20.2213 17.4656C20.2763 17.5797 20.2957 17.7029 20.2779 17.8243C20.26 17.9458 20.2055 18.062 20.1189 18.1628C20.0324 18.2636 19.9165 18.346 19.7812 18.403C19.6459 18.4599 19.4953 18.4896 19.3424 18.4896V20.0521C19.8123 20.0522 20.2752 19.9607 20.6911 19.7857C21.107 19.6106 21.4633 19.3571 21.7293 19.0472C21.9953 18.7373 22.163 18.3802 22.2179 18.0068C22.2727 17.6334 22.2118 17.255 22.0429 16.9042L20.2213 17.4656ZM20.2343 11.3156C19.9453 11.3927 19.638 11.4688 19.388 11.5917L20.414 12.9219C20.401 12.9271 20.4114 12.9208 20.4869 12.8979C20.5664 12.874 20.6731 12.8458 20.8515 12.7979L20.2343 11.3156ZM20.4192 13.5281C20.3719 13.4326 20.328 13.3364 20.2851 13.2396C20.2591 13.1781 20.2591 13.1677 20.2617 13.1781L18.3268 13.3906C18.3658 13.6229 18.4882 13.8615 18.5976 14.0885L20.4192 13.5281ZM19.388 11.5917C19.0123 11.7771 18.712 12.0458 18.5236 12.3651C18.3352 12.6845 18.2669 13.0408 18.3268 13.3906L20.2617 13.1781C20.2534 13.1282 20.2634 13.0774 20.2904 13.0319C20.3174 12.9865 20.3604 12.9482 20.414 12.9219L19.388 11.5917ZM23.763 9.78646C23.7634 9.95756 23.6963 10.1244 23.5712 10.2632C23.4461 10.402 23.2694 10.5056 23.0664 10.5594L23.6823 12.0417C24.2743 11.8843 24.7906 11.5817 25.1554 11.1769C25.5203 10.772 25.7165 10.2855 25.7161 9.78646H23.763ZM9.20569 16.9042C9.03678 17.255 8.97719 17.6334 9.03206 18.0068C9.08693 18.3802 9.25461 18.7373 9.52061 19.0472C9.78661 19.3571 10.1429 19.6106 10.5588 19.7857C10.9747 19.9607 11.4376 20.0522 11.9075 20.0521V18.4896C11.7546 18.4896 11.604 18.4599 11.4687 18.403C11.3334 18.346 11.2175 18.2636 11.131 18.1628C11.0444 18.062 10.9899 17.9458 10.9721 17.8243C10.9542 17.7029 10.9736 17.5797 11.0286 17.4656L9.20569 16.9042ZM10.3984 12.7979C10.5768 12.8448 10.6836 12.874 10.763 12.8979C10.8385 12.9208 10.8476 12.9271 10.8359 12.9219L11.8619 11.5917C11.6119 11.4688 11.3046 11.3927 11.0156 11.3156L10.3984 12.7979ZM12.651 14.0896C12.7617 13.8604 12.8828 13.6229 12.9231 13.3906L10.9882 13.1781C10.9895 13.1677 10.9895 13.1781 10.9648 13.2396C10.9219 13.3364 10.8767 13.4326 10.8294 13.5281L12.651 14.0896ZM10.8359 12.9219C10.8895 12.9482 10.9325 12.9865 10.9595 13.0319C10.9866 13.0774 10.9965 13.1282 10.9882 13.1781L12.9231 13.3906C12.9831 13.0408 12.9147 12.6845 12.7263 12.3651C12.5379 12.0458 12.2376 11.7771 11.8619 11.5917L10.8359 12.9219ZM5.53381 9.78646C5.53381 10.8104 6.35282 11.7188 7.56506 12.0417L8.18355 10.5594C7.9805 10.5056 7.80384 10.402 7.67875 10.2632C7.55366 10.1244 7.48653 9.95756 7.48694 9.78646H5.53381ZM7.48694 9.78646C7.48694 9.26771 8.0859 8.88021 8.71871 8.98959L9.12757 7.4625C8.69431 7.38809 8.24703 7.39215 7.81599 7.47437C7.38494 7.55659 6.98234 7.71491 6.63767 7.93771C6.293 8.16052 6.01498 8.44218 5.82399 8.76206C5.63299 9.08195 5.53384 9.43196 5.53381 9.78646H7.48694ZM16.8307 18.8854C17.0836 19.24 17.448 19.5348 17.8894 19.7397C18.3307 19.9446 18.8321 20.0524 19.3424 20.0521V18.4896C19.0039 18.4896 18.6927 18.3438 18.526 18.1094L16.8307 18.8854ZM25.7161 9.78646C25.716 9.43207 25.6169 9.08217 25.426 8.76237C25.2351 8.44258 24.9572 8.16099 24.6127 7.9382C24.2682 7.71541 23.8657 7.55707 23.4348 7.47477C23.004 7.39246 22.5542 7.38827 22.1211 7.4625L22.5325 8.98959C22.681 8.9641 22.8335 8.96552 22.9812 8.99374C23.1289 9.02195 23.2669 9.07625 23.385 9.15266C23.5031 9.22906 23.5984 9.32564 23.6638 9.4353C23.7292 9.54497 23.7631 9.66495 23.763 9.78646H25.7161Z" fill="#AEAEAE"/>
<path d="M25.3307 15.1042C27.3919 15.9334 28.6458 17.0292 28.6458 18.2292C28.6458 20.8178 22.8164 22.9167 15.625 22.9167C8.43356 22.9167 2.60413 20.8178 2.60413 18.2292C2.60413 17.0292 3.85803 15.9334 5.91923 15.1042" stroke="#AEAEAE" stroke-width="0.75" stroke-linecap="round"/>
</svg>
