<svg width="32" height="25" viewBox="0 0 32 25" fill="none" xmlns="http://www.w3.org/2000/svg">
<path d="M14.323 17.7605V7.50004C13.4332 7.08337 12.4892 6.77087 11.4909 6.56254C10.4927 6.35421 9.48355 6.25004 8.46358 6.25004C7.68233 6.25004 6.90629 6.3108 6.13546 6.43233C5.36462 6.55386 4.62157 6.73615 3.90629 6.97921V17.2917C4.66584 17.0834 5.42018 16.9271 6.16931 16.823C6.91845 16.7188 7.6832 16.6667 8.46358 16.6667C9.48355 16.6667 10.4766 16.758 11.4428 16.9407C12.4089 17.1233 13.369 17.3966 14.323 17.7605ZM15.625 20.8334C14.5834 20.1737 13.4549 19.6615 12.2396 19.2969C11.0243 18.9323 9.76567 18.75 8.46358 18.75C7.55213 18.75 6.65716 18.8455 5.77869 19.0365C4.90022 19.2275 4.05907 19.4966 3.25525 19.8438C2.79952 20.0348 2.36028 20.0261 1.93754 19.8177C1.5148 19.6094 1.30299 19.3056 1.30212 18.9063V6.35421C1.30212 6.16323 1.36202 5.98094 1.48181 5.80733C1.6016 5.63372 1.78042 5.50351 2.01827 5.41671C3.01653 5.00004 4.0582 4.68754 5.14327 4.47921C6.22834 4.27087 7.33511 4.16671 8.46358 4.16671C10.0695 4.16671 11.4367 4.31428 12.5651 4.60942C13.6936 4.90455 14.9089 5.35594 16.211 5.96358C16.4497 6.06775 16.629 6.18928 16.7487 6.32817C16.8685 6.46705 16.928 6.64935 16.9271 6.87504V17.7605C17.882 17.3959 18.8425 17.1223 19.8086 16.9396C20.7748 16.757 21.7674 16.666 22.7865 16.6667C23.5678 16.6667 24.3329 16.7188 25.0821 16.823C25.8312 16.9271 26.5851 17.0834 27.3438 17.2917V4.76567C27.6693 4.85247 27.9896 4.94796 28.3047 5.05212C28.6198 5.15629 28.9289 5.27782 29.2318 5.41671C29.4705 5.50351 29.6498 5.63372 29.7696 5.80733C29.8894 5.98094 29.9488 6.16323 29.948 6.35421V18.9063C29.948 19.3056 29.7362 19.6094 29.3125 19.8177C28.8889 20.0261 28.4497 20.0348 27.9948 19.8438C27.1919 19.4966 26.3512 19.2275 25.4727 19.0365C24.5942 18.8455 23.6988 18.75 22.7865 18.75C21.4844 18.75 20.2257 18.9323 19.0105 19.2969C17.7952 19.6615 16.6667 20.1737 15.625 20.8334ZM20.1823 14.5834V3.12504L24.0886 2.08337V13.5417L20.1823 14.5834Z" fill="#AEAEAE"/>
</svg>
