<svg width="11" height="20" viewBox="0 0 11 20" fill="none" xmlns="http://www.w3.org/2000/svg">
<path d="M2.83854 9.88372L10.4948 17.54C10.7552 17.8004 10.8813 18.1042 10.8729 18.4514C10.8646 18.7987 10.7299 19.1025 10.4688 19.3629C10.2076 19.6233 9.90382 19.7535 9.55729 19.7535C9.21076 19.7535 8.90695 19.6233 8.64583 19.3629L0.625 11.3681C0.416667 11.1598 0.260417 10.9254 0.15625 10.665C0.0520834 10.4046 0 10.1441 0 9.88372C0 9.6233 0.0520834 9.36289 0.15625 9.10247C0.260417 8.84205 0.416667 8.60768 0.625 8.39935L8.64583 0.378512C8.90625 0.118096 9.21458 -0.00794574 9.57084 0.000387597C9.92708 0.00872093 10.2351 0.143443 10.4948 0.404554C10.7545 0.665665 10.8847 0.969485 10.8854 1.31601C10.8861 1.66254 10.7559 1.96636 10.4948 2.22747L2.83854 9.88372Z" fill="white"/>
</svg>
