<svg width="15" height="15" viewBox="0 0 15 15" fill="none" xmlns="http://www.w3.org/2000/svg">
<path d="M8.1285 11.7285C8.3095 11.547 8.4 11.325 8.4 11.0625C8.4 10.8 8.3095 10.578 8.1285 10.3965C7.9475 10.215 7.7255 10.1245 7.4625 10.125C7.1995 10.1255 6.97775 10.2163 6.79725 10.3973C6.61675 10.5783 6.526 10.8 6.525 11.0625C6.524 11.325 6.61475 11.547 6.79725 11.7285C6.97975 11.91 7.2015 12.0005 7.4625 12C7.7235 11.9995 7.9455 11.9088 8.1285 11.7278M6.7875 9.1125H8.175C8.175 8.7 8.222 8.375 8.316 8.1375C8.41 7.9 8.6755 7.575 9.1125 7.1625C9.4375 6.8375 9.69375 6.528 9.88125 6.234C10.0688 5.94 10.1625 5.587 10.1625 5.175C10.1625 4.475 9.90625 3.9375 9.39375 3.5625C8.88125 3.1875 8.275 3 7.575 3C6.8625 3 6.2845 3.1875 5.841 3.5625C5.3975 3.9375 5.088 4.3875 4.9125 4.9125L6.15 5.4C6.2125 5.175 6.35325 4.93125 6.57225 4.66875C6.79125 4.40625 7.1255 4.275 7.575 4.275C7.975 4.275 8.275 4.3845 8.475 4.6035C8.675 4.8225 8.775 5.063 8.775 5.325C8.775 5.575 8.7 5.8095 8.55 6.0285C8.4 6.2475 8.2125 6.4505 7.9875 6.6375C7.4375 7.125 7.1 7.49375 6.975 7.74375C6.85 7.99375 6.7875 8.45 6.7875 9.1125ZM7.5 15C6.4625 15 5.4875 14.8033 4.575 14.4098C3.6625 14.0163 2.86875 13.4818 2.19375 12.8063C1.51875 12.1308 0.984501 11.337 0.591001 10.425C0.197501 9.513 0.000500949 8.538 9.49367e-07 7.5C-0.000499051 6.462 0.196501 5.487 0.591001 4.575C0.985501 3.663 1.51975 2.86925 2.19375 2.19375C2.86775 1.51825 3.6615 0.984004 4.575 0.591004C5.4885 0.198004 6.4635 0.00100379 7.5 3.78788e-06C8.5365 -0.000996212 9.5115 0.196004 10.425 0.591004C11.3385 0.986004 12.1323 1.52025 12.8063 2.19375C13.4803 2.86725 14.0148 3.661 14.4098 4.575C14.8048 5.489 15.0015 6.464 15 7.5C14.9985 8.536 14.8015 9.511 14.409 10.425C14.0165 11.339 13.4823 12.1328 12.8063 12.8063C12.1303 13.4798 11.3365 14.0143 10.425 14.4098C9.5135 14.8053 8.5385 15.002 7.5 15Z" fill="white"/>
</svg>
