<svg width="15" height="15" viewBox="0 0 15 15" fill="none" xmlns="http://www.w3.org/2000/svg">
<path d="M6.6625 5.10625C7.24375 5.10625 7.71875 4.625 7.71875 4.04375C7.71875 3.76361 7.60747 3.49495 7.40938 3.29687C7.2113 3.09878 6.94264 2.9875 6.6625 2.9875C6.075 2.9875 5.6 3.4625 5.6 4.04375C5.6 4.625 6.075 5.10625 6.6625 5.10625ZM8.5625 12.4563L12.2688 11.7188L12.0562 10.6562L9.4625 11.1875L8.61875 6.9L9.56875 7.275V9.0625H10.625V6.5875L7.875 5.41875L7.45625 5.36875C7.08125 5.36875 6.76875 5.58125 6.5625 5.9L6.025 6.74375C5.6 7.5 4.75625 8.0125 3.75 8.0125V9.0625C4.9125 9.0625 5.975 8.54375 6.6625 7.75L6.975 9.3375L5.86875 10.3937V14.375H6.925V11.1875L8.0375 10.1312L8.5625 12.4563ZM1.875 14.375H3.125V1.875H11.25V10.0688L12.5 9.80625V0.625H1.875V14.375ZM11.25 14.375H12.5V12.3625L11.25 12.625V14.375Z" fill="white"/>
</svg>
