<svg width="50" height="50" viewBox="0 0 50 50" fill="none" xmlns="http://www.w3.org/2000/svg">
<path d="M25 14.4897C25.5526 14.4897 26.0825 14.7092 26.4732 15.0999C26.8639 15.4906 27.0834 16.0205 27.0834 16.5731V22.9168H33.4292C33.9817 22.9168 34.5117 23.1363 34.9024 23.527C35.2931 23.9177 35.5125 24.4476 35.5125 25.0002C35.5125 25.5527 35.2931 26.0826 34.9024 26.4733C34.5117 26.864 33.9817 27.0835 33.4292 27.0835H27.0834V33.4293C27.0834 33.9819 26.8639 34.5118 26.4732 34.9025C26.0825 35.2932 25.5526 35.5127 25 35.5127C24.4475 35.5127 23.9176 35.2932 23.5269 34.9025C23.1362 34.5118 22.9167 33.9819 22.9167 33.4293V27.0835H16.5709C16.0183 27.0835 15.4884 26.864 15.0977 26.4733C14.707 26.0826 14.4875 25.5527 14.4875 25.0002C14.4875 24.4476 14.707 23.9177 15.0977 23.527C15.4884 23.1363 16.0183 22.9168 16.5709 22.9168H22.9167V16.5731C22.9167 16.0205 23.1362 15.4906 23.5269 15.0999C23.9176 14.7092 24.4475 14.4897 25 14.4897Z" fill="#223C5D"/>
<path fill-rule="evenodd" clip-rule="evenodd" d="M25.0001 4.16675C13.4938 4.16675 4.16675 13.4938 4.16675 25.0001C4.16675 36.5063 13.4938 45.8334 25.0001 45.8334C36.5063 45.8334 45.8334 36.5063 45.8334 25.0001C45.8334 13.4938 36.5063 4.16675 25.0001 4.16675ZM8.33342 25.0001C8.33342 20.5798 10.0894 16.3406 13.215 13.215C16.3406 10.0894 20.5798 8.33342 25.0001 8.33342C29.4204 8.33342 33.6596 10.0894 36.7852 13.215C39.9108 16.3406 41.6668 20.5798 41.6668 25.0001C41.6668 29.4204 39.9108 33.6596 36.7852 36.7852C33.6596 39.9108 29.4204 41.6668 25.0001 41.6668C20.5798 41.6668 16.3406 39.9108 13.215 36.7852C10.0894 33.6596 8.33342 29.4204 8.33342 25.0001Z" fill="#223C5D"/>
</svg>
