<svg width="17" height="19" viewBox="0 0 17 19" fill="none" xmlns="http://www.w3.org/2000/svg">
<path d="M15.75 8.25H14.1562V3C14.1562 1.34297 12.8133 0 11.1562 0H5.34375C3.68672 0 2.34375 1.34297 2.34375 3V8.25H0.75C0.335156 8.25 0 8.58516 0 9V18C0 18.4148 0.335156 18.75 0.75 18.75H15.75C16.1648 18.75 16.5 18.4148 16.5 18V9C16.5 8.58516 16.1648 8.25 15.75 8.25ZM4.03125 3C4.03125 2.27578 4.61953 1.6875 5.34375 1.6875H11.1562C11.8805 1.6875 12.4688 2.27578 12.4688 3V8.25H4.03125V3ZM14.8125 17.0625H1.6875V9.9375H14.8125V17.0625ZM7.59375 13.8047V15.0469C7.59375 15.15 7.67812 15.2344 7.78125 15.2344H8.71875C8.82187 15.2344 8.90625 15.15 8.90625 15.0469V13.8047C9.09972 13.6658 9.24413 13.4691 9.31868 13.2429C9.39324 13.0167 9.3941 12.7727 9.32114 12.5459C9.24818 12.3192 9.10516 12.1215 8.91268 11.9812C8.72019 11.841 8.48817 11.7654 8.25 11.7654C8.01183 11.7654 7.77981 11.841 7.58732 11.9812C7.39484 12.1215 7.25182 12.3192 7.17886 12.5459C7.1059 12.7727 7.10676 13.0167 7.18132 13.2429C7.25588 13.4691 7.40028 13.6658 7.59375 13.8047Z" fill="#AAAAAA"/>
</svg>
