<svg width="24" height="16" viewBox="0 0 24 16" fill="none" xmlns="http://www.w3.org/2000/svg">
<path d="M16.3614 7.976L22.4667 2.632V13.259L16.3614 7.976ZM8.49437 8.881L10.6383 10.756C10.9748 11.044 11.4135 11.218 11.8929 11.218H11.9098H11.9088H11.9227C12.4031 11.218 12.8418 11.043 13.1823 10.753L13.1793 10.755L15.3232 8.88L21.8404 14.519H1.98017L8.49437 8.881ZM1.97123 1.365H21.8523L12.3028 9.721C12.1955 9.80656 12.0626 9.85308 11.9257 9.853H11.9118H11.9128H11.8989C11.7615 9.85318 11.6281 9.80627 11.5207 9.72L11.5217 9.721L1.97123 1.365ZM1.35485 2.631L7.45913 7.975L1.35485 13.255V2.631ZM22.7943 0.19C22.556 0.0700001 22.2761 0 21.9794 0H1.84518C1.55749 6.9235e-05 1.27376 0.0675106 1.01639 0.197L1.0273 0.192C0.719186 0.345111 0.459704 0.581979 0.278171 0.875845C0.0966368 1.16971 0.000285212 1.50887 0 1.855L0 14.027C0.000525468 14.5196 0.194992 14.9919 0.54073 15.3402C0.886468 15.6885 1.35524 15.8845 1.84419 15.885H21.9764C22.4653 15.8845 22.9341 15.6885 23.2798 15.3402C23.6256 14.9919 23.82 14.5196 23.8206 14.027V1.855C23.8206 1.128 23.4047 0.498 22.7992 0.195L22.7883 0.19H22.7943Z" fill="#AAAAAA"/>
</svg>
