<svg width="25" height="25" viewBox="0 0 25 25" fill="none" xmlns="http://www.w3.org/2000/svg">
<path d="M5.20837 13.2913C5.20837 11.8769 5.20837 11.1698 5.49427 10.5482C5.78017 9.92655 6.31709 9.46634 7.39093 8.5459L8.43259 7.65305C10.3736 5.98937 11.344 5.15753 12.5 5.15753C13.6561 5.15753 14.6265 5.98937 16.5675 7.65305L17.6092 8.5459C18.683 9.46634 19.2199 9.92655 19.5058 10.5482C19.7917 11.1698 19.7917 11.8769 19.7917 13.2913V17.7083C19.7917 19.6725 19.7917 20.6546 19.1815 21.2648C18.5713 21.875 17.5892 21.875 15.625 21.875H9.37504C7.41085 21.875 6.42876 21.875 5.81857 21.2648C5.20837 20.6546 5.20837 19.6725 5.20837 17.7083V13.2913Z" stroke="#BDBDBD"/>
<path d="M15.1042 21.875V16.625C15.1042 16.0727 14.6565 15.625 14.1042 15.625H10.8959C10.3436 15.625 9.89587 16.0727 9.89587 16.625V21.875" stroke="#BDBDBD" stroke-linecap="round" stroke-linejoin="round"/>
</svg>
