<svg width="25" height="25" viewBox="0 0 25 25" fill="none" xmlns="http://www.w3.org/2000/svg">
<path d="M21.875 7.29167V21.875H3.125V3.125H17.7083L21.875 7.29167ZM19.7917 8.17708L16.8229 5.20833H5.20833V19.7917H19.7917V8.17708ZM14.7135 17.8385C15.3212 17.2309 15.625 16.4931 15.625 15.625C15.625 14.7569 15.3212 14.0191 14.7135 13.4115C14.1059 12.8038 13.3681 12.5 12.5 12.5C11.6319 12.5 10.8941 12.8038 10.2865 13.4115C9.67882 14.0191 9.375 14.7569 9.375 15.625C9.375 16.4931 9.67882 17.2309 10.2865 17.8385C10.8941 18.4462 11.6319 18.75 12.5 18.75C13.3681 18.75 14.1059 18.4462 14.7135 17.8385ZM6.25 10.4167H15.625V6.25H6.25V10.4167ZM5.20833 8.17708V19.7917V5.20833V8.17708Z" fill="white"/>
</svg>
